<?xml version="1.0" standalone="no"?><svg xmlns="http://www.w3.org/2000/svg" viewBox="0 0 1440 320"><path fill="#69ebd0" fill-opacity="1" d="M0,0L24,26.7C48,53,96,107,144,122.7C192,139,240,117,288,112C336,107,384,117,432,144C480,171,528,213,576,208C624,203,672,149,720,149.3C768,149,816,203,864,234.7C912,267,960,277,1008,250.7C1056,224,1104,160,1152,122.7C1200,85,1248,75,1296,80C1344,85,1392,107,1416,117.3L1440,128L1440,0L1416,0C1392,0,1344,0,1296,0C1248,0,1200,0,1152,0C1104,0,1056,0,1008,0C960,0,912,0,864,0C816,0,768,0,720,0C672,0,624,0,576,0C528,0,480,0,432,0C384,0,336,0,288,0C240,0,192,0,144,0C96,0,48,0,24,0L0,0Z"></path></svg>