<?xml version="1.0" standalone="no"?><svg xmlns="http://www.w3.org/2000/svg" viewBox="0 0 1440 320"><path fill="#49d49d" fill-opacity="1" d="M0,224L30,186.7C60,149,120,75,180,48C240,21,300,43,360,69.3C420,96,480,128,540,117.3C600,107,660,53,720,74.7C780,96,840,192,900,213.3C960,235,1020,181,1080,181.3C1140,181,1200,235,1260,240C1320,245,1380,203,1410,181.3L1440,160L1440,320L1410,320C1380,320,1320,320,1260,320C1200,320,1140,320,1080,320C1020,320,960,320,900,320C840,320,780,320,720,320C660,320,600,320,540,320C480,320,420,320,360,320C300,320,240,320,180,320C120,320,60,320,30,320L0,320Z"></path></svg>